<?xml version="1.0" encoding="UTF-8" standalone="no"?>
<!-- Created with Inkscape (http://www.inkscape.org/) -->

<svg
   width="74.866417mm"
   height="74.720657mm"
   viewBox="0 0 74.866417 74.720657"
   version="1.1"
   id="svg5"
   xml:space="preserve"
   inkscape:export-filename="bitmap.svg"
   inkscape:export-xdpi="96"
   inkscape:export-ydpi="96"
   xmlns:inkscape="http://www.inkscape.org/namespaces/inkscape"
   xmlns:sodipodi="http://sodipodi.sourceforge.net/DTD/sodipodi-0.dtd"
   xmlns="http://www.w3.org/2000/svg"
   xmlns:svg="http://www.w3.org/2000/svg"><sodipodi:namedview
     id="namedview7"
     pagecolor="#ffffff"
     bordercolor="#000000"
     borderopacity="0.25"
     inkscape:showpageshadow="2"
     inkscape:pageopacity="0.0"
     inkscape:pagecheckerboard="0"
     inkscape:deskcolor="#d1d1d1"
     inkscape:document-units="mm"
     showgrid="false" /><defs
     id="defs2" /><g
     inkscape:label="Camada 1"
     inkscape:groupmode="layer"
     id="layer1"
     transform="translate(-66.622629,-96.375989)"><path
       style="fill:#000000;stroke-width:0.264583"
       d="M 99.313386,170.92405 C 85.957711,169.2628 74.247055,160.09567 69.181134,147.33647 c -1.04893,-2.64188 -2.120032,-7.1416 -2.29521,-9.64223 -0.07997,-1.14156 -0.182793,-2.61817 -0.228492,-3.28135 -0.247655,-3.59384 0.85208,-9.83613 2.475524,-14.05151 3.602736,-9.35476 11.027544,-17.09462 20.144284,-20.999058 10.029788,-4.295465 22.03108,-3.937437 31.75027,0.947188 2.69341,1.35364 6.35198,3.99493 8.87637,6.40827 6.72781,6.43182 10.70962,14.80326 11.46486,24.10391 1.04322,12.84724 -4.75357,25.46252 -15.24212,33.17068 -4.13143,3.03624 -9.97059,5.56235 -15.17195,6.56361 -2.68465,0.5168 -8.87263,0.71244 -11.641284,0.36807 z m 12.214974,-3.91572 c 13.22826,-3.0753 23.12943,-13.30237 26.03479,-26.89173 0.61311,-2.86774 0.62789,-9.47754 0.0281,-12.56771 -2.62293,-13.51351 -12.63476,-23.98332 -25.84283,-27.02499 -3.401,-0.783217 -9.6863,-0.954676 -13.229165,-0.36089 -14.048425,2.35453 -24.864359,12.908 -27.931395,27.25359 -0.543732,2.54322 -0.625271,9.42206 -0.142698,12.03854 0.825532,4.47597 2.829153,9.52021 5.26156,13.24628 1.625414,2.48988 5.337497,6.40749 7.895698,8.33285 4.554333,3.42769 9.100997,5.26733 16.239751,6.5708 0.363799,0.0664 2.625989,0.0793 5.027079,0.0286 3.17028,-0.0669 4.99361,-0.23816 6.65911,-0.62535 z M 100.23905,163.225 c -3.8474,-0.43262 -8.043834,-1.88399 -11.493107,-3.975 -8.20208,-4.97224 -13.358052,-13.17762 -14.33491,-22.81305 -0.349972,-3.45204 -0.08202,-6.52165 0.902872,-10.34327 0.565116,-2.19278 0.669055,-2.38778 1.313204,-2.46372 1.135235,-0.13383 5.4488,0.70619 7.821533,1.52317 3.930761,1.35344 6.056982,2.84527 10.765345,7.55336 5.598543,5.59821 8.018323,7.18343 11.404933,7.47146 2.03357,0.17296 3.74919,-0.36447 5.75995,-1.80435 2.19608,-1.57257 3.49813,-2.08184 5.32268,-2.08184 2.9931,0 5.11865,1.65308 5.35761,4.16672 0.34067,3.58358 -4.78897,6.54492 -10.3847,5.99509 -2.62153,-0.25759 -4.88567,-1.00689 -7.94819,-2.63039 -4.69752,-2.49026 -8.889314,-3.87589 -11.498682,-3.80099 -0.670875,0.0193 -0.901874,0.0825 -0.529167,0.1449 2.013773,0.3371 5.181611,1.70769 7.318909,3.16659 0.60566,0.41341 2.30551,1.90388 3.77744,3.31214 5.12204,4.90047 10.15066,7.41123 17.27996,8.6278 1.42693,0.24349 2.54457,0.55949 2.49585,0.70566 -0.2016,0.60481 -3.93604,3.15885 -6.3982,4.37584 -3.25172,1.60724 -6.29643,2.49688 -9.86611,2.88279 -3.05482,0.33025 -4.03124,0.32847 -7.06722,-0.0129 z m 6.61458,-34.91349 c -2.4008,-0.3037 -4.71848,-1.00172 -9.16804,-2.76116 -4.405347,-1.74195 -7.404905,-2.62922 -10.318573,-3.05226 -2.149284,-0.31205 -9.017185,-0.40574 -10.212866,-0.13932 -0.327422,0.073 -0.595312,0.077 -0.595312,0.009 0,-0.068 0.432877,-0.98394 0.961951,-2.03533 3.958454,-7.8664 11.518695,-13.70325 20.337006,-15.70112 2.878374,-0.65212 9.514154,-0.6654 12.218044,-0.0245 7.84754,1.8602 14.32981,6.24741 18.49738,12.51906 1.76179,2.65126 2.94291,5.03099 2.64492,5.32902 -0.35282,0.35288 -15.68674,0.2173 -18.41139,-0.16279 -4.30826,-0.60101 -9.38717,-2.03562 -12.30312,-3.47518 l -2.645834,-1.30621 1.322917,1.22583 c 2.248377,2.08338 5.715997,4.1777 9.090837,5.49055 3.59793,1.39963 4.72426,2.20959 4.26528,3.0672 -0.53674,1.00291 -2.71469,1.39273 -5.6832,1.01722 z"
       id="path179" /></g></svg>
